:SAMPLES-PER-SECOND 30
:FULLY-SPECIFIED
:DEGREES
470
root  -21.0184 36.546 -0.0338059 126.153 -69.2865 -135.524
RightUpLeg  -15.1318 -18.1589 -7.70955
RightLeg  37.1904 15.3467 11.9382
RightFoot  14.7963 -4.40031 19.2381
RightToes  -1.16417e-010 0 -3.6325e-017
Spine  13.7961 -6.62753 -14.8144
Spine1  -2.63703 -8.99485 10.3864
HEad  -2.20099 23.15 21.3476
LeftShoulder1  -0.0197604 5.71328 8.64136
LeftArm  -42.3287 41.2758 -49.3995
LeftForeArm  -30.0816 -52.2323 -16.5209
LeftHand  1.32719 9.09251 39.3593
RightShoulder  -0.138078 -9.71002 -7.09442
RightArm  0.767392 -30.4634 61.9283
RightForeArm  25.1357 58.4157 16.1607
RightHand  -1.19424 -0.345348 -27.1686
LeftUpLeg  10.1484 -6.23903 45.0058
LeftLeg  26.3248 15.7625 8.7003
LeftFoot  8.78495 7.55456 -41.2802
LeftToes  6.91183e-011 3.39355e-011 2.1261e-011
471
root  -21.1576 36.5705 -1.16534 130.272 -65.6935 -137.3
RightUpLeg  -17.068 -16.1393 -2.7871
RightLeg  37.2414 16.0125 12.4625
RightFoot  10.9773 -3.74753 19.246
RightToes  -1.16417e-010 0 -3.6325e-017
Spine  12.4989 -8.13309 -19.6398
Spine1  -4.86066 -11.6636 19.6366
HEad  2.42758 28.8779 20.4189
LeftShoulder1  -0.0102644 4.55553 8.47452
LeftArm  -32.1916 46.9767 -41.2128
LeftForeArm  -15.036 -50.4739 -14.7068
LeftHand  1.83866 10.0167 43.2704
RightShoulder  -0.164952 -11.0329 -7.13807
RightArm  -3.97877 -29.5951 64.9852
RightForeArm  14.3359 55.0558 15.0086
RightHand  -1.04839 -1.00564 -27.437
LeftUpLeg  10.2684 -9.99046 44.9448
LeftLeg  27.5784 23.9225 13.2507
LeftFoot  13.2949 8.61519 -38.447
LeftToes  6.91183e-011 3.39355e-011 2.1261e-011
472
root  -21.2173 36.3158 -2.21871 135.902 -62.7984 -141.673
RightUpLeg  -18.5636 -12.3682 -0.217216
RightLeg  38.4287 16.7338 13.5485
RightFoot  5.00349 -2.89218 20.1923
RightToes  -1.16417e-010 0 -3.6325e-017
Spine  12.1159 -8.24057 -24.3665
Spine1  -7.51377 -12.6485 27.7206
HEad  5.57908 34.1069 18.9452
LeftShoulder1  0.00834314 3.10996 7.36847
LeftArm  -20.7099 48.9141 -32.5293
LeftForeArm  2.66363 -44.1133 -10.7606
LeftHand  2.10196 10.2101 46.9351
RightShoulder  -0.21843 -11.9556 -6.69512
RightArm  -10.6702 -26.7421 67.9509
RightForeArm  2.33588 50.1087 13.3203
RightHand  -0.974419 -1.50982 -28.6987
LeftUpLeg  11.2603 -6.43623 45.8285
LeftLeg  28.4911 27.3905 15.4291
LeftFoot  13.3169 8.1391 -36.4607
LeftToes  6.91183e-011 3.39355e-011 2.1261e-011
473
root  -21.1483 35.8856 -2.96697 139.565 -61.6541 -145.657
RightUpLeg  -18.5321 -10.1073 -0.0433203
RightLeg  40.0849 16.9312 14.4926
RightFoot  -2.15637 -1.70614 20.8047
RightToes  -1.16417e-010 0 -3.6325e-017
Spine  13.3286 -7.2092 -28.0026
Spine1  -9.47064 -12.4636 34.5833
HEad  7.30362 37.7526 16.8092
LeftShoulder1  0.0681088 1.66242 5.45894
LeftArm  -6.71556 45.9993 -25.5597
LeftForeArm  17.0264 -33.7952 -6.48835
LeftHand  2.54457 10.6306 51.4286
RightShoulder  -0.294631 -12.3746 -5.87534
RightArm  -17.2569 -21.8507 70.1831
RightForeArm  -8.92415 42.7587 10.9362
RightHand  -1.09963 -1.19127 -29.9349
LeftUpLeg  12.2795 -2.17401 46.6223
LeftLeg  28.9837 26.7183 15.385
LeftFoot  10.5803 7.25688 -36.6474
LeftToes  6.91183e-011 3.39355e-011 2.1261e-011
474
root  -21.0253 35.3735 -3.25538 140.285 -62.5717 -146.375
RightUpLeg  -18.7708 -10.0402 -0.698087
RightLeg  41.7676 16.0353 14.5626
RightFoot  -8.93639 -0.509503 21.2389
RightToes  -1.16417e-010 0 -3.6325e-017
Spine  15.1597 -6.05257 -28.6073
Spine1  -10.9056 -11.7585 39.5759
HEad  7.0949 38.7164 13.6604
LeftShoulder1  0.203626 0.0638592 2.92676
LeftArm  11.0923 39.7498 -21.0445
LeftForeArm  22.043 -24.5177 -4.39166
LeftHand  3.11907 11.3883 54.6134
RightShoulder  -0.419337 -11.6488 -3.76185
RightArm  -20.7945 -15.8234 69.2855
RightForeArm  -19.0019 33.7832 8.49801
RightHand  -1.17668 -0.925084 -30.1126
LeftUpLeg  10.4616 -1.6044 46.9435
LeftLeg  31.0598 22.8311 14.4426
LeftFoot  7.32737 6.3317 -37.5141
LeftToes  6.91183e-011 3.39355e-011 2.1261e-011
475
root  -20.9494 34.7847 -3.16914 139.08 -65.0674 -144.091
RightUpLeg  -20.6811 -11.0267 -1.84546
RightLeg  44.3775 14.3533 14.3039
RightFoot  -13.9705 0.421786 22.2584
RightToes  -1.16417e-010 0 -3.6325e-017
Spine  15.9528 -5.18028 -25.9432
Spine1  -11.1406 -10.8246 41.5817
HEad  3.83603 37.1445 8.9888
LeftShoulder1  0.430533 -1.71532 0.227349
LeftArm  26.7306 32.7057 -18.4538
LeftForeArm  23.2861 -19.6842 -5.5797
LeftHand  3.22363 11.5691 54.7563
RightShoulder  -0.525943 -9.39588 0.638299
RightArm  -20.1244 -9.14018 63.9801
RightForeArm  -28.4748 25.2345 6.8892
RightHand  -1.14244 -0.963438 -29.516
LeftUpLeg  5.76221 -1.95859 47.5579
LeftLeg  34.2857 15.8802 11.65
LeftFoot  3.27644 5.03228 -38.0458
LeftToes  6.91183e-011 3.39355e-011 2.1261e-011
476
root  -20.8889 34.1805 -2.85361 135.641 -69.0296 -139.972
RightUpLeg  -22.6477 -12.6942 -4.39431
RightLeg  47.9043 12.5198 14.1281
RightFoot  -16.5672 0.964888 23.3758
RightToes  -1.16417e-010 0 -3.6325e-017
Spine  16.1648 -4.17568 -21.5682
Spine1  -9.58733 -9.90787 40.6663
HEad  -2.24676 33.7481 2.54191
LeftShoulder1  0.680679 -3.16645 -2.02333
LeftArm  36.5789 26.7878 -17.6304
LeftForeArm  25.0549 -18.5112 -7.07988
LeftHand  3.18844 11.6301 53.8046
RightShoulder  -0.376507 -6.17512 6.35369
RightArm  -20.0066 -1.95513 55.8256
RightForeArm  -34.9143 19.0894 6.97393
RightHand  -1.20341 -0.666344 -29.152
LeftUpLeg  0.430964 0.0917823 48.4813
LeftLeg  37.292 7.23461 6.23669
LeftFoot  -1.75705 3.35037 -38.4405
LeftToes  6.91183e-011 3.39355e-011 2.1261e-011
477
root  -20.725 33.744 -2.34771 126.912 -74.5073 -131.633
RightUpLeg  -22.7265 -14.5007 -8.46519
RightLeg  50.3493 10.1427 12.5122
RightFoot  -16.9377 1.05921 23.7236
RightToes  -1.16417e-010 0 -3.6325e-017
Spine  17.2853 -3.02225 -16.6699
Spine1  -7.45302 -8.99084 38.4005
HEad  -8.91347 28.4386 -4.72102
LeftShoulder1  0.84862 -3.88348 -3.47026
LeftArm  44.8795 23.2884 -18.5499
LeftForeArm  23.7336 -20.363 -5.78679
LeftHand  3.3059 11.9472 53.2079
RightShoulder  0.0792232 -3.03238 11.1186
RightArm  -25.2908 5.05213 47.4274
RightForeArm  -37.6746 15.5796 7.03788
RightHand  -1.36068 -0.0591487 -29.2233
LeftUpLeg  -5.01997 4.10918 48.2973
LeftLeg  40.2999 -0.858 -0.40182
LeftFoot  -5.74755 1.97516 -38.2831
LeftToes  6.91183e-011 3.39355e-011 2.1261e-011
478
root  -20.4436 33.5777 -1.62785 104.136 -80.0283 -109.077
RightUpLeg  -21.4289 -14.984 -12.9637
RightLeg  50.4319 6.51487 8.05713
RightFoot  -15.9259 0.85502 23.7488
RightToes  -1.16417e-010 0 -3.6325e-017
Spine  18.8049 -2.03236 -11.1007
Spine1  -6.17971 -7.69509 35.6874
HEad  -14.0495 20.8813 -10.9595
LeftShoulder1  0.909609 -3.94318 -4.28315
LeftArm  47.5226 22.2098 -20.1201
LeftForeArm  24.9097 -25.0864 -3.83998
LeftHand  3.21622 11.9471 51.9668
RightShoulder  0.572672 -0.737134 14.0369
RightArm  -33.6011 10.6994 39.5532
RightForeArm  -40.8903 14.2486 5.13173
RightHand  -1.43393 0.286742 -28.9336
LeftUpLeg  -11.4394 8.4125 46.0658
LeftLeg  43.9157 -7.32808 -7.11226
LeftFoot  -7.22072 1.40146 -36.5854
LeftToes  6.91183e-011 3.39355e-011 2.1261e-011
479
root  -20.1291 33.6633 -0.706434 56.6477 -82.5002 -61.1018
RightUpLeg  -19.2334 -14.5352 -18.2339
RightLeg  48.638 2.32632 2.50017
RightFoot  -14.108 0.510213 24.7743
RightToes  -1.16417e-010 0 -3.6325e-017
Spine  19.4617 -1.13055 -5.00737
Spine1  -5.59631 -5.75771 31.4942
HEad  -17.3485 11.3681 -15.1649
LeftShoulder1  0.9034 -3.62128 -4.80463
LeftArm  41.6276 22.2243 -21.7293
LeftForeArm  32.9007 -31.5898 -5.09195
LeftHand  2.85478 11.4847 49.9466
RightShoulder  0.844571 0.336604 15.3391
RightArm  -43.1501 13.1792 31.6782
RightForeArm  -44.4707 14.997 2.78147
RightHand  -1.31798 -0.0451884 -28.2661
LeftUpLeg  -18.3804 11.7308 40.9685
LeftLeg  47.7891 -12.2178 -13.6566
LeftFoot  -6.49483 1.47802 -33.2003
LeftToes  6.91183e-011 3.39355e-011 2.1261e-011
480
root  -19.8153 33.9476 0.432403 4.72687 -78.827 -8.88251
RightUpLeg  -14.6372 -15.377 -26.1151
RightLeg  45.0883 -0.750987 -1.14652
RightFoot  -11.3876 -0.072626 27.6613
RightToes  -1.16417e-010 0 -3.6325e-017
Spine  19.4327 -0.275292 1.15936
Spine1  -4.80947 -3.43491 24.4005
HEad  -18.8357 0.355021 -17.5422
LeftShoulder1  0.854573 -3.0907 -5.11779
LeftArm  38.0413 21.7672 -24.2217
LeftForeArm  36.1592 -37.4493 -6.37002
LeftHand  2.56392 11.0511 48.5126
RightShoulder  0.832058 0.351685 14.8158
RightArm  -52.4846 10.1237 24.2667
RightForeArm  -45.7236 17.5621 2.31352
RightHand  -1.07968 -0.916605 -27.6621
LeftUpLeg  -24.2767 13.2069 32.4167
LeftLeg  51.0741 -15.367 -19.0101
LeftFoot  -4.26186 1.83644 -28.7986
LeftToes  6.91183e-011 3.39355e-011 2.1261e-011
481
root  -19.4818 34.4182 1.80665 -16.6053 -71.1507 12.4646
RightUpLeg  -7.22239 -16.6 -35.9002
RightLeg  38.7537 -3.52172 -3.26798
RightFoot  -6.71759 -1.38199 31.9042
RightToes  -1.16417e-010 0 -3.6325e-017
Spine  18.9312 0.503361 7.97134
Spine1  -3.74296 -0.694004 14.3416
HEad  -17.4391 -11.822 -18.7657
LeftShoulder1  0.761398 -2.34604 -5.18203
LeftArm  36.2385 19.9483 -27.6012
LeftForeArm  35.0003 -40.1861 -7.2145
LeftHand  2.43594 10.8599 47.7988
RightShoulder  0.712381 0.0737297 12.9997
RightArm  -57.8404 0.310455 17.3942
RightForeArm  -43.6402 20.9376 4.51854
RightHand  -0.868727 -1.68495 -26.8701
LeftUpLeg  -27.9819 13.5075 21.4506
LeftLeg  52.6172 -16.1252 -20.9491
LeftFoot  -0.86829 2.2211 -23.9238
LeftToes  6.91183e-011 3.39355e-011 2.1261e-011
482
root  -19.1432 34.9845 3.268 -23.7155 -64.0647 20.5146
RightUpLeg  -0.269553 -13.9575 -43.309
RightLeg  30.8187 -10.1467 -6.59464
RightFoot  0.582601 -3.75914 35.0411
RightToes  -1.16417e-010 0 -3.6325e-017
Spine  17.8491 1.79532 15.8744
Spine1  -3.37413 3.05779 2.55134
HEad  -12.466 -24.2498 -19.8855
LeftShoulder1  0.605237 -1.23283 -4.90053
LeftArm  34.455 18.5612 -30.858
LeftForeArm  31.2603 -41.0501 -7.71453
LeftHand  2.28495 10.687 46.4816
RightShoulder  0.647615 -0.0232928 11.5427
RightArm  -52.5553 -13.6535 9.53246
RightForeArm  -42.3071 24.4939 6.99483
RightHand  -0.838973 -1.68787 -26.0107
LeftUpLeg  -29.8064 14.4662 10.7932
LeftLeg  51.9836 -15.1817 -19.4147
LeftFoot  2.33405 2.31329 -19.218
LeftToes  6.91183e-011 3.39355e-011 2.1261e-011
483
root  -18.8136 35.4333 4.60605 -26.269 -59.3552 25.2988
RightUpLeg  3.05821 -6.93299 -46.5318
RightLeg  25.4213 -21.3199 -10.9256
RightFoot  8.90486 -6.25376 34.5247
RightToes  -1.16417e-010 0 -3.6325e-017
Spine  17.288 3.72891 23.4709
Spine1  -4.69273 7.33151 -8.9008
HEad  -5.45672 -34.7501 -21.8783
LeftShoulder1  0.385766 0.265108 -3.86091
LeftArm  30.7728 20.5623 -33.5022
LeftForeArm  26.1149 -42.2869 -8.44515
LeftHand  2.01039 10.3296 44.1489
RightShoulder  0.574218 -0.278803 10.6285
RightArm  -37.4051 -26.0409 0.177751
RightForeArm  -42.1938 28.3381 7.93783
RightHand  -0.987894 -1.02018 -25.9507
LeftUpLeg  -30.8038 15.6787 2.30032
LeftLeg  50.2292 -14.5319 -17.5299
LeftFoot  3.32659 2.05358 -15.9821
LeftToes  6.91183e-011 3.39355e-011 2.1261e-011
